Coordinates
version=1
nRows=19
nColumns=34
inDegrees=yes

Units are S.I. units (second, meters, Newtons, ...)
If the header above contains a line with 'inDegrees', this indicates whether rotational values are in degrees (yes) or radians (no).

endheader
time	pelvis_tilt	pelvis_list	pelvis_rotation	pelvis_tx	pelvis_ty	pelvis_tz	hip_flexion_r	hip_adduction_r	hip_rotation_r	knee_angle_r	ankle_angle_r	subtalar_angle_r	mtp_angle_r	hip_flexion_l	hip_adduction_l	hip_rotation_l	knee_angle_l	ankle_angle_l	subtalar_angle_l	mtp_angle_l	lumbar_extension	lumbar_bending	lumbar_rotation	arm_flex_r	arm_add_r	arm_rot_r	elbow_flex_r	pro_sup_r	arm_flex_l	arm_add_l	arm_rot_l	elbow_flex_l	pro_sup_l
      2.83333330	     -3.82351624	      1.08583996	     -0.68625394	      1.76147638	      0.96284383	     -0.17305914	      7.11754730	     -7.36412728	     -0.46110847	      7.59610530	      6.24609377	    -15.48748354	      0.00000000	      5.55915756	      0.04352689	      0.42288211	      4.78533592	      7.31559654	     -4.84388733	      0.00000000	    -11.54324982	     -1.05940869	      0.27982580	     14.95262564	     -1.83165467	     29.93743187	     79.79854874	     81.26007159	     12.72653669	    -10.59823407	     32.69133905	     75.46877490	     87.86604860
      2.85000000	     -4.00131010	      1.01097236	     -0.68237676	      1.75950142	      0.96413088	     -0.17249896	      7.35670204	     -7.27571974	     -0.31689242	      7.61119362	      6.04901799	    -15.01694474	      0.00000000	      5.89542018	     -0.06008547	      0.27620761	      4.91034790	      7.08083284	     -4.72560038	      0.00000000	    -11.85640526	     -0.97929749	      0.19429349	     15.40428139	     -1.51364692	     29.81292719	     79.86827390	     81.24989185	     13.21712062	    -10.52688513	     32.59043556	     75.48210138	     87.84137869
      2.86666670	     -4.48605772	      0.99384470	     -0.78326788	      1.76042674	      0.96620985	     -0.17195816	      7.92654977	     -7.22713758	     -0.77967745	      7.51734124	      6.41483667	    -13.34009031	      0.00000000	      6.48139627	     -0.16279625	     -0.30513904	      4.93353017	      6.94354387	     -4.12560512	      0.00000000	    -11.71127297	     -0.94392364	      0.28077627	     15.41294096	     -1.17134186	     28.91424723	     79.48442446	     81.16234610	     13.37791264	    -10.38832880	     32.32865282	     75.43898265	     87.70767076
      2.88333330	     -4.64735328	      0.96691304	     -0.75938408	      1.75913214	      0.96256782	     -0.17088522	      8.09650916	     -7.20958347	     -0.61535240	      7.35507446	      6.24517808	    -12.98310791	      0.00000000	      6.82983114	     -0.24355892	     -0.42106461	      5.11602418	      6.72646207	     -4.00576578	      0.00000000	    -12.02475308	     -0.88957460	      0.19555576	     15.70804624	     -0.92496751	     28.83015706	     79.54150315	     81.15553675	     13.80895566	    -10.33461849	     32.22402002	     75.48641336	     87.69078330
      2.90000000	     -4.92494801	      0.97513015	     -0.85256346	      1.75858809	      0.96314846	     -0.17033565	      8.35354267	     -7.16201882	     -0.68046002	      7.01841008	      5.94677377	    -12.47398075	      0.00000000	      7.30281217	     -0.31089426	     -0.74297779	      5.26417818	      6.45148536	     -3.81006307	      0.00000000	    -12.23154599	     -0.83501624	      0.19777894	     15.88270590	     -0.75714759	     28.63957119	     79.56905094	     81.13671100	     14.02744336	    -10.27296108	     32.12235908	     75.56386863	     87.66559767
      2.91666670	     -5.38211795	      0.93523304	     -0.92966785	      1.75743859	      0.96198538	     -0.16902316	      8.90143518	     -7.13005399	     -1.34227490	      6.97332745	      6.34433376	    -11.08009333	      0.00000000	      8.05771116	     -0.47419036	     -1.49436100	      5.64395524	      6.79508094	     -2.77123161	      0.00000000	    -12.16570476	     -0.74918164	      0.19774081	     15.74734418	     -0.49275067	     27.75210201	     79.40521878	     81.02307962	     14.01160273	    -10.16010263	     31.99555051	     75.80726626	     87.56136882
      2.93333330	     -5.51291121	      1.00210198	     -1.09401110	      1.75771441	      0.96130447	     -0.16816085	      9.03979901	     -7.12242895	     -1.37890771	      6.75531313	      6.36142062	    -11.07610762	      0.00000000	      8.21819564	     -0.49138164	     -1.54683577	      5.58167564	      6.77125846	     -2.76786655	      0.00000000	    -12.41894342	     -0.70808519	      0.10254734	     15.73999390	     -0.55187414	     27.71491263	     79.36281790	     81.01821438	     14.08994341	    -10.11586669	     31.99335603	     75.79869333	     87.55885874
      2.95000000	     -5.75841203	      0.97254205	     -1.09127942	      1.75688487	      0.96063654	     -0.16523471	      9.13755102	     -6.99713285	     -1.40434529	      6.33031314	      6.22404597	    -10.81496706	      0.00000000	      8.77380906	     -0.67599924	     -2.02780605	      5.94847968	      6.44896271	     -2.70940737	      0.00000000	    -12.73009217	     -0.63683391	      0.09755383	     15.96746098	     -0.44837382	     27.57212110	     79.32024142	     80.99453256	     14.38308166	     -9.96066386	     31.97739108	     75.89078017	     87.54811535
      2.96666670	     -6.09206228	      0.94721946	     -1.20800102	      1.75667186	      0.96043684	     -0.16326069	      9.38377610	     -6.80063249	     -1.65005741	      5.92442726	      6.04549825	    -10.55950853	      0.00000000	      9.34368038	     -0.88667970	     -2.51557163	      6.21134003	      6.38588285	     -2.54931313	      0.00000000	    -12.79435612	     -0.49975493	      0.22775770	     15.83766121	     -0.52045654	     27.35646407	     79.18376955	     80.94540355	     14.34622258	     -9.87898201	     32.07195311	     76.01637533	     87.53827076
      2.98333330	     -6.23239341	      1.00245038	     -1.25531186	      1.75707215	      0.95997727	     -0.16024140	      9.48221904	     -6.75267785	     -1.66375796	      5.80426738	      6.06726658	    -10.52770647	      0.00000000	      9.48985165	     -0.97106229	     -2.55655761	      6.21388627	      6.39334036	     -2.52284061	      0.00000000	    -13.06786302	     -0.49966235	      0.19087856	     15.72114416	     -0.59546078	     27.33000900	     79.10639438	     80.93785464	     14.32749102	     -9.93026874	     32.06860995	     75.97495393	     87.53556234
      3.00000000	     -6.86505528	      0.91070446	     -1.30128068	      1.75664835	      0.96274434	     -0.15941900	     10.00837903	     -6.46567167	     -2.00532455	      5.37853080	      5.83446817	     -9.83732020	      0.00000000	     10.44076650	     -1.32739445	     -3.26694661	      6.64820612	      6.60302554	     -1.81084469	      0.00000000	    -12.78312790	     -0.25019950	      0.41471472	     15.35357014	     -0.64732330	     26.83150818	     78.83285134	     80.79927588	     14.16898684	     -9.77420984	     32.12131526	     75.90968038	     87.50779602
      3.01666670	     -6.97067939	      0.96987065	     -1.35343160	      1.75546198	      0.96129133	     -0.15500395	     10.09052320	     -6.39720099	     -2.01121512	      5.27687125	      5.87929839	     -9.82038188	      0.00000000	     10.59099661	     -1.42787043	     -3.32865038	      6.74106140	      6.55984828	     -1.78153812	      0.00000000	    -13.11386962	     -0.31434308	      0.32767966	     15.18765401	     -0.71669289	     26.83692336	     78.73921135	     80.79214906	     14.15913852	     -9.81825831	     32.12787262	     75.83390742	     87.50616968
      3.03333330	     -7.50741453	      0.93114678	     -1.27562900	      1.75721431	      0.96093383	     -0.15606347	     10.57674932	     -6.20364041	     -2.37345541	      5.07122848	      5.71528751	     -9.22625021	      0.00000000	     11.60007314	     -1.71726924	     -4.18904880	      7.50522440	      6.81704015	     -0.74654463	      0.00000000	    -12.79788807	     -0.06426790	      0.31874212	     14.69898050	     -0.86794487	     26.64109603	     78.29364122	     80.60513965	     14.11865467	     -9.62910891	     32.33075294	     75.19900351	     87.49397672
      3.05000000	     -7.51176937	      1.01159318	     -1.30924489	      1.75809537	      0.96027933	     -0.15405704	     10.51913307	     -6.20932701	     -2.39588845	      5.03640347	      5.79575539	     -9.17980997	      0.00000000	     11.73807125	     -1.79246127	     -4.45209130	      7.83360789	      6.74476427	     -0.71612460	      0.00000000	    -13.10317938	     -0.09707727	      0.18758048	     14.28387106	     -0.98405760	     26.72827388	     78.16043663	     80.58292726	     13.89406640	     -9.55505889	     32.44343250	     75.06801373	     87.49639366
      3.06666670	     -7.67918735	      1.10965363	     -1.35422601	      1.75928668	      0.96234398	     -0.15195715	     10.55890348	     -6.14107417	     -2.48975260	      4.78335502	      5.71543701	     -9.05670650	      0.00000000	     11.96421201	     -1.85134779	     -4.77205699	      7.96619275	      6.64305775	     -0.61441560	      0.00000000	    -13.22262751	     -0.01908966	      0.09046677	     13.77502518	     -1.32245829	     26.80226423	     77.99155353	     80.54894827	     13.55172080	     -9.42217639	     32.56947688	     74.89979975	     87.49917229
      3.08333330	     -7.99435523	      1.06292111	     -1.38858550	      1.76142330	      0.96072497	     -0.14823260	     10.69819246	     -5.95712820	     -2.67817703	      4.58024691	      5.63396304	     -8.47093349	      0.00000000	     12.40728725	     -2.12547578	     -5.28499870	      8.31517898	      6.77840114	      0.14102553	      0.00000000	    -13.01543507	      0.19062842	      0.05171217	     13.27346732	     -1.63023105	     27.25744149	     77.89781683	     80.41476780	     13.20797925	     -9.24269715	     32.70351740	     74.32670572	     87.49788335
      3.10000000	     -8.09463349	      1.21364035	     -1.45550524	      1.76281877	      0.96201437	     -0.14728603	     10.66626591	     -5.93556207	     -2.79500669	      4.44393789	      5.71503869	     -8.52458290	      0.00000000	     12.45625722	     -2.12951269	     -5.47182109	      8.32741489	      6.77734876	      0.14245422	      0.00000000	    -13.11158948	      0.20771982	     -0.01693675	     12.69512902	     -1.87336254	     27.40556753	     77.73659517	     80.38669599	     12.72768902	     -9.04771427	     32.88578831	     74.21793083	     87.50553494
      3.11666670	     -8.25939461	      1.19951103	     -1.56515622	      1.76240012	      0.95793865	     -0.14513185	     10.66481515	     -5.78827392	     -2.75304435	      4.26107316	      5.79464709	     -8.32979972	      0.00000000	     12.65261634	     -2.33359496	     -5.75321687	      8.51235705	      6.83379047	      0.30780021	      0.00000000	    -13.06473957	      0.39548244	     -0.04188405	     12.25119943	     -2.18580593	     27.85141875	     77.60552898	     80.31276162	     12.35243563	     -8.87512860	     33.04231112	     73.94916494	     87.51459330
      3.13333330	     -8.35015024	      1.32398484	     -1.62976554	      1.76409373	      0.95798934	     -0.14190703	     10.73146482	     -5.72229311	     -2.75158271	      4.24726739	      5.74753629	     -8.31110854	      0.00000000	     12.74709314	     -2.37858088	     -5.77724563	      8.52342260	      6.81111151	      0.34407622	      0.00000000	    -13.28360479	      0.42599828	     -0.15456933	     11.87221997	     -2.46577833	     27.92892553	     77.45502817	     80.29805642	     12.06960064	     -8.82020303	     33.13829115	     73.84498711	     87.51934993
